<svg 
          width="453" 
          height="324" fill="none" 
          xmlns="http://www.w3.org/2000/svg">
          <path d="M 0 324 L 10.947500228881836 270 C 21.517499923706055 216 43.03499794006348 108 64.55249786376953 90 C 86.4474983215332 72 107.96499824523926 144 129.4824981689453 186 C 150.99999809265137 228 172.51750373840332 240 194.03500366210938 228 C 215.55250358581543 216 237.44749641418457 180 258.9649963378906 150 C 280.4824962615967 120 301.99998664855957 96 323.5174865722656 84 C 345.0349864959717 72 366.5525093078613 72 388.447509765625 90 C 409.96500968933105 108 431.4824905395508 144 442.052490234375 162 L 453 180 L 453 0 L 442.052490234375 0 C 431.4824905395508 0 409.96500968933105 0 388.447509765625 0 C 366.5525093078613 0 345.0349864959717 0 323.5174865722656 0 C 301.99998664855957 0 280.4824962615967 0 258.9649963378906 0 C 237.44749641418457 0 215.55250358581543 0 194.03500366210938 0 C 172.51750373840332 0 150.99999809265137 0 129.4824981689453 0 C 107.96499824523926 0 86.4474983215332 0 64.55249786376953 0 C 43.03499794006348 0 21.517499923706055 0 10.947500228881836 0 L 0 0 L 0 324 Z" fill="rgb(0,153.00000607967377,255)"/>
        </svg>