<svg 
          width="916.8922729492188" 
          height="199.99200439453125" fill="none" 
          xmlns="http://www.w3.org/2000/svg">
          <path d="M 0 55.991981506347656 L 50 37.991981506347656 C 100 19.991981506347656 200 -16.008018493652344 300 7.991981506347656 C 400 31.991981506347656 571.2327270507812 128.99200439453125 671.2327270507812 164.99200439453125 C 732.1890830993652 186.93629264831543 724.1331672668457 124.34892654418945 733.8043823242188 79.49200439453125 C 739.9989695549011 50.76033973693848 753.4663391113281 29.30282688140869 797 41.99200439453125 C 908.5 74.49198913574219 621.2327270507812 176.99200439453125 671.2327270507812 164.99200439453125 L 671.2327270507812 199.99200439453125 C 621.2327270507812 199.99200439453125 1000 199.9919891357422 900 199.9919891357422 C 800 199.9919891357422 700 199.9919891357422 600 199.9919891357422 C 500 199.9919891357422 400 199.9919891357422 300 199.9919891357422 C 200 199.9919891357422 100 199.9919891357422 50 199.9919891357422 L 0 199.9919891357422 L 0 55.991981506347656 Z" fill="rgb(109.00000110268593,221.00000202655792,208.0000028014183)"/>
        </svg>