<svg 
          width="393.6951599121094" 
          height="118.1185531616211" fill="none" 
          xmlns="http://www.w3.org/2000/svg">
          <path d="M 0 105.38027782066195 L 16.79766015625 85.6938522937251 C 32.545466552734375 66.00742676678826 66.14078686523439 26.634575712914557 98.68625341796876 22.002475588929418 C 131.23171997070312 17.370375464944278 163.7771865234375 48.63705130184398 197.37250683593751 59.05927658081055 C 229.9179733886719 70.6395268907734 262.46343994140625 61.37532664280311 295.0089064941406 48.637051301843975 C 328.6042268066406 34.74075092988855 361.149693359375 17.370375464944278 376.89749975585937 9.264200247970281 L 393.6951599121094 0 L 393.6951599121094 118.1185531616211 L 376.89749975585937 118.1185531616211 C 361.149693359375 118.1185531616211 328.6042268066406 118.1185531616211 295.0089064941406 118.1185531616211 C 262.46343994140625 118.1185531616211 229.9179733886719 118.1185531616211 197.37250683593751 118.1185531616211 C 163.7771865234375 118.1185531616211 131.23171997070312 118.1185531616211 98.68625341796876 118.1185531616211 C 66.14078686523439 118.1185531616211 32.545466552734375 118.1185531616211 16.79766015625 118.1185531616211 L 0 118.1185531616211 L 0 105.38027782066195 Z" fill="rgb(109.00000110268593,221.00000202655792,208.0000028014183)"/>
        </svg>