<svg 
          width="375" 
          height="120" fill="none" 
          xmlns="http://www.w3.org/2000/svg">
          <path d="M 0 0 L 16 15.294117647058824 C 31 31.764705882352942 63 62.35294117647059 94 62.35294117647059 C 125 62.35294117647059 156 31.764705882352942 188 31.764705882352942 C 219 31.764705882352942 250 62.352941176470594 281 77.64705882352942 C 313 92.94117647058825 344 92.94117647058823 359 92.94117647058823 L 375 92.94117647058823 L 375 120 L 359 120 C 344 120 313 120 281 120 C 250 120 219 120 188 120 C 156 120 125 120 94 120 C 63 120 31 120 16 120 L 0 120 L 0 0 Z" fill="rgb(0,153.00000607967377,255)"/>
        </svg>