<svg 
          width="329.37713623046875" 
          height="117.87332916259766" fill="none" 
          xmlns="http://www.w3.org/2000/svg">
          <path d="M 0 59.785330008762735 L 13.724048389997916 46.876888083879024 C 27.448096779995833 33.96844316132153 54.89618727762135 8.151555751816499 82.34428405761719 1.6973332905377538 C 109.79238083761302 -4.75688917074099 137.24047133523854 8.15155481504344 164.68856811523438 24.287110968240302 C 192.1366648952302 40.422667121437165 219.58475539285573 59.78533000876273 247.03285217285156 72.69377493132022 C 274.48094895284737 85.60221985387771 301.9290488740284 92.05644381399335 315.6530972640263 95.28355504463272 L 329.37713623046875 98.5106647764352 L 329.37713623046875 117.87332916259766 L 315.6530972640263 117.87332916259766 C 301.9290488740284 117.87332916259766 274.48094895284737 117.87332916259766 247.03285217285156 117.87332916259766 C 219.58475539285573 117.87332916259766 192.1366648952302 117.87332916259766 164.68856811523438 117.87332916259766 C 137.24047133523854 117.87332916259766 109.79238083761302 117.87332916259766 82.34428405761719 117.87332916259766 C 54.89618727762135 117.87332916259766 27.448096779995833 117.87332916259766 13.724048389997916 117.87332916259766 L 0 117.87332916259766 L 0 59.785330008762735 Z" fill="rgb(0,153.00000607967377,255)"/>
        </svg>